# xmcd CD database file
#
# Track frame offsets:
#	150
#	21170
#	46802
#	69725
#	93489
#	123347
#	147028
#	205161
#	246274
#
# Disc length: 4469 seconds
#
# Revision: 2
# Processed by: cddbd v1.4b41PL1 Copyright (c) Steve Scherf et al.
# Submitted via: Feurio! 1.51.13ß - http://www.feurio.com
#
DISCID=7b117309
DTITLE=Various Artist - Blues Traveler
DYEAR=1900
DGENRE=
TTITLE0=Blues Traveler - Run-Around
TTITLE1=Blues Traveler - Look Around
TTITLE2=Blues Traveler - The Mountains Win Again
TTITLE3=Blues Traveler - Price To Pay
TTITLE4=Blues Traveler - Brother John
TTITLE5=Blues Traveler - Mulling It Over
TTITLE6=Blues Traveler - Closing Down The Park
TTITLE7=Blues Traveler - Mountain Cry
TTITLE8=Blues Traveler - Hippie, Imagine
EXTD=
EXTT0=
EXTT1=
EXTT2=
EXTT3=
EXTT4=
EXTT5=
EXTT6=
EXTT7=
EXTT8=
PLAYORDER=
